<svg xmlns="http://www.w3.org/2000/svg" width="18" height="18"><path d="M7.938 16.46l-.086-.081-6.16-5.719A5.306 5.306 0 010 6.777v-.113a5.15 5.15 0 014.191-5.062A5.135 5.135 0 019 3.23a4.5 4.5 0 01.477-.468c.128-.11.261-.215.402-.317A5.154 5.154 0 0118 6.665v.112a5.306 5.306 0 01-1.691 3.883l-6.16 5.719-.086.082a1.556 1.556 0 01-2.125 0zm.468-11.362c-.015-.012-.023-.024-.035-.04l-.625-.703-.004-.003a3.467 3.467 0 00-6.054 2.312v.113c0 1.004.417 1.961 1.152 2.645L9 15.14l6.16-5.72a3.612 3.612 0 001.152-2.644v-.113a3.473 3.473 0 00-2.816-3.41 3.473 3.473 0 00-3.234 1.098l-.004.003-.004.004-.625.704c-.012.015-.024.023-.035.039a.843.843 0 01-1.188 0zm0 0" id="surface1"/></svg>