<?xml version="1.0" encoding="UTF-8"?>
<svg xmlns="http://www.w3.org/2000/svg" xmlns:xlink="http://www.w3.org/1999/xlink" width="18px" height="18px" viewBox="0 0 18 18" version="1.1">
<g id="surface1">
<path style=" stroke:none;fill-rule:nonzero;fill:rgb(0%,0%,0%);fill-opacity:1;" d="M 7.9375 16.460938 L 7.851562 16.378906 L 1.691406 10.660156 C 0.613281 9.65625 0 8.25 0 6.777344 L 0 6.664062 C 0 4.1875 1.757812 2.0625 4.191406 1.601562 C 5.574219 1.332031 6.992188 1.652344 8.121094 2.445312 C 8.4375 2.671875 8.734375 2.933594 9 3.230469 C 9.148438 3.0625 9.304688 2.90625 9.476562 2.761719 C 9.605469 2.652344 9.738281 2.546875 9.878906 2.445312 C 11.007812 1.652344 12.425781 1.332031 13.808594 1.597656 C 16.242188 2.058594 18 4.1875 18 6.664062 L 18 6.777344 C 18 8.25 17.386719 9.65625 16.308594 10.660156 L 10.148438 16.378906 L 10.0625 16.460938 C 9.773438 16.726562 9.394531 16.878906 9 16.878906 C 8.605469 16.878906 8.226562 16.730469 7.9375 16.460938 Z M 8.40625 5.097656 C 8.390625 5.085938 8.382812 5.074219 8.371094 5.058594 L 7.746094 4.355469 C 7.746094 4.355469 7.742188 4.351562 7.742188 4.351562 C 6.929688 3.441406 5.703125 3.027344 4.507812 3.253906 C 2.867188 3.570312 1.6875 4.996094 1.6875 6.664062 L 1.6875 6.777344 C 1.6875 7.78125 2.105469 8.738281 2.839844 9.421875 L 9 15.140625 L 15.160156 9.421875 C 15.894531 8.738281 16.3125 7.78125 16.3125 6.777344 L 16.3125 6.664062 C 16.3125 5 15.132812 3.570312 13.496094 3.253906 C 12.300781 3.027344 11.070312 3.445312 10.261719 4.351562 C 10.261719 4.351562 10.261719 4.351562 10.257812 4.355469 C 10.253906 4.359375 10.257812 4.355469 10.253906 4.359375 L 9.628906 5.0625 C 9.617188 5.078125 9.605469 5.085938 9.59375 5.101562 C 9.4375 5.257812 9.222656 5.347656 9 5.347656 C 8.777344 5.347656 8.5625 5.257812 8.40625 5.101562 Z M 8.40625 5.097656 "/>
</g>
</svg>
